{
  "accessors": [
    {
      "bufferView": 2,
      "componentType": 5126,
      "count": 28113,
      "max": [
        4673.46435546875,
        2622.88623046875,
        10000.001953125
      ],
      "min": [
        -4673.46484375,
        -2661.775390625,
        -10113.5634765625
      ],
      "type": "VEC3"
    },
    {
      "bufferView": 2,
      "byteOffset": 337356,
      "componentType": 5126,
      "count": 28113,
      "max": [
        1.0,
        0.9993570446968079,
        1.0
      ],
      "min": [
        -1.0,
        -0.9993564486503601,
        -1.0
      ],
      "type": "VEC3"
    },
    {
      "bufferView": 1,
      "componentType": 5126,
      "count": 28113,
      "max": [
        0.8750001192092896,
        0.7424992322921753
      ],
      "min": [
        0.0,
        0.0
      ],
      "type": "VEC2"
    },
    {
      "bufferView": 0,
      "componentType": 5125,
      "count": 160512,
      "type": "SCALAR"
    },
    {
      "bufferView": 2,
      "byteOffset": 674712,
      "componentType": 5126,
      "count": 32049,
      "max": [
        4671.26123046875,
        -2504.132568359375,
        9997.7978515625
      ],
      "min": [
        -4671.26123046875,
        -2893.322265625,
        -9997.7978515625
      ],
      "type": "VEC3"
    },
    {
      "bufferView": 2,
      "byteOffset": 1059300,
      "componentType": 5126,
      "count": 32049,
      "max": [
        0.9999545216560364,
        -0.009473458863794804,
        0.9999545216560364
      ],
      "min": [
        -0.9999544024467468,
        -1.0,
        -0.9998586773872375
      ],
      "type": "VEC3"
    },
    {
      "bufferView": 1,
      "byteOffset": 224904,
      "componentType": 5126,
      "count": 32049,
      "max": [
        0.996403157711029,
        0.9980782270431519
      ],
      "min": [
        0.006071358919143677,
        0.006266461219638586
      ],
      "type": "VEC2"
    },
    {
      "bufferView": 0,
      "byteOffset": 642048,
      "componentType": 5125,
      "count": 190464,
      "type": "SCALAR"
    },
    {
      "bufferView": 2,
      "byteOffset": 1443888,
      "componentType": 5126,
      "count": 32049,
      "max": [
        4671.26220703125,
        2893.322265625,
        9997.7978515625
      ],
      "min": [
        -4671.26171875,
        2493.285400390625,
        -9997.798828125
      ],
      "type": "VEC3"
    },
    {
      "bufferView": 2,
      "byteOffset": 1828476,
      "componentType": 5126,
      "count": 32049,
      "max": [
        0.9999545216560364,
        1.0,
        0.9999545216560364
      ],
      "min": [
        -0.9999544024467468,
        0.005647932644933462,
        -0.9999134540557861
      ],
      "type": "VEC3"
    },
    {
      "bufferView": 1,
      "byteOffset": 481296,
      "componentType": 5126,
      "count": 32049,
      "max": [
        1.0175697803497314,
        0.9993032217025757
      ],
      "min": [
        -0.017569901421666145,
        0.0006970123504288495
      ],
      "type": "VEC2"
    },
    {
      "bufferView": 0,
      "byteOffset": 1403904,
      "componentType": 5125,
      "count": 190464,
      "type": "SCALAR"
    },
    {
      "bufferView": 2,
      "byteOffset": 2213064,
      "componentType": 5126,
      "count": 40352,
      "max": [
        1700.6353759765625,
        2086.394775390625,
        -10113.5634765625
      ],
      "min": [
        -3193.587646484375,
        -2086.413330078125,
        -15345.583984375
      ],
      "type": "VEC3"
    },
    {
      "bufferView": 2,
      "byteOffset": 2697288,
      "componentType": 5126,
      "count": 40352,
      "max": [
        1.0,
        1.0,
        1.0
      ],
      "min": [
        -1.0,
        -1.0,
        -1.0
      ],
      "type": "VEC3"
    },
    {
      "bufferView": 1,
      "byteOffset": 737688,
      "componentType": 5126,
      "count": 40352,
      "max": [
        0.8223837614059448,
        0.7004067301750183
      ],
      "min": [
        0.0,
        0.0
      ],
      "type": "VEC2"
    },
    {
      "bufferView": 0,
      "byteOffset": 2165760,
      "componentType": 5125,
      "count": 240768,
      "type": "SCALAR"
    }
  ],
  "asset": {
    "extras": {
      "author": "bahoduroviskandar51 (https://sketchfab.com/bahoduroviskandar51)",
      "license": "CC-BY-4.0 (http://creativecommons.org/licenses/by/4.0/)",
      "source": "https://sketchfab.com/3d-models/native-moisturizing-shampoo---coconut-vanilla-b07c6f230f064087823dceff8812daeb",
      "title": "Native Moisturizing Shampoo _ Coconut & Vanilla"
    },
    "generator": "Sketchfab-16.56.0",
    "version": "2.0"
  },
  "bufferViews": [
    {
      "buffer": 0,
      "byteLength": 3128832,
      "name": "floatBufferViews",
      "target": 34963
    },
    {
      "buffer": 0,
      "byteLength": 1060504,
      "byteOffset": 3128832,
      "byteStride": 8,
      "name": "floatBufferViews",
      "target": 34962
    },
    {
      "buffer": 0,
      "byteLength": 3181512,
      "byteOffset": 4189336,
      "byteStride": 12,
      "name": "floatBufferViews",
      "target": 34962
    }
  ],
  "buffers": [
    {
      "byteLength": 7370848,
      "uri": "scene.bin"
    }
  ],
  "images": [
    {
      "uri": "textures/Material.005_baseColor.png"
    },
    {
      "uri": "textures/Material.004_baseColor.png"
    }
  ],
  "materials": [
    {
      "doubleSided": true,
      "name": "Material.001",
      "pbrMetallicRoughness": {
        "baseColorFactor": [
          0.8,
          0.8,
          0.8,
          1.0
        ],
        "metallicFactor": 0.0,
        "roughnessFactor": 0.8211145618000169
      }
    },
    {
      "doubleSided": true,
      "name": "Material.005",
      "pbrMetallicRoughness": {
        "baseColorTexture": {
          "index": 0
        },
        "metallicFactor": 0.0,
        "roughnessFactor": 0.8211145618000169
      }
    },
    {
      "doubleSided": true,
      "name": "Material.004",
      "pbrMetallicRoughness": {
        "baseColorTexture": {
          "index": 1
        },
        "metallicFactor": 0.0,
        "roughnessFactor": 0.8211145618000169
      }
    },
    {
      "doubleSided": true,
      "name": "Material.003",
      "pbrMetallicRoughness": {
        "baseColorFactor": [
          0.8,
          0.8,
          0.8,
          1.0
        ],
        "metallicFactor": 0.0,
        "roughnessFactor": 0.8211145618000169
      }
    }
  ],
  "meshes": [
    {
      "name": "Native Moisturizing Shampoo | Coconut & Vanilla_Material.001_0",
      "primitives": [
        {
          "attributes": {
            "NORMAL": 1,
            "POSITION": 0,
            "TEXCOORD_0": 2
          },
          "indices": 3,
          "material": 0,
          "mode": 4
        }
      ]
    },
    {
      "name": "Native Moisturizing Shampoo | Coconut & Vanilla_Material.005_0",
      "primitives": [
        {
          "attributes": {
            "NORMAL": 5,
            "POSITION": 4,
            "TEXCOORD_0": 6
          },
          "indices": 7,
          "material": 1,
          "mode": 4
        }
      ]
    },
    {
      "name": "Native Moisturizing Shampoo | Coconut & Vanilla_Material.004_0",
      "primitives": [
        {
          "attributes": {
            "NORMAL": 9,
            "POSITION": 8,
            "TEXCOORD_0": 10
          },
          "indices": 11,
          "material": 2,
          "mode": 4
        }
      ]
    },
    {
      "name": "Native Moisturizing Shampoo | Coconut & Vanilla_Material.003_0",
      "primitives": [
        {
          "attributes": {
            "NORMAL": 13,
            "POSITION": 12,
            "TEXCOORD_0": 14
          },
          "indices": 15,
          "material": 3,
          "mode": 4
        }
      ]
    }
  ],
  "nodes": [
    {
      "children": [
        1
      ],
      "matrix": [
        1.0,
        0.0,
        0.0,
        0.0,
        0.0,
        2.220446049250313e-16,
        -1.0,
        0.0,
        0.0,
        1.0,
        2.220446049250313e-16,
        0.0,
        0.0,
        0.0,
        0.0,
        1.0
      ],
      "name": "Sketchfab_model"
    },
    {
      "children": [
        2
      ],
      "matrix": [
        0.009999999776482582,
        0.0,
        0.0,
        0.0,
        0.0,
        0.0,
        0.009999999776482582,
        0.0,
        0.0,
        -0.009999999776482582,
        0.0,
        0.0,
        0.0,
        0.0,
        0.0,
        1.0
      ],
      "name": "a66a5caa9993465d9d8ece97301d138e.fbx"
    },
    {
      "children": [
        3
      ],
      "name": "RootNode"
    },
    {
      "children": [
        4,
        5,
        6,
        7
      ],
      "matrix": [
        0.01081016007810831,
        0.0,
        0.0,
        0.0,
        0.0,
        -1.3047502005955216e-09,
        0.008008499629795445,
        0.0,
        0.0,
        -0.00999999977648245,
        -1.6292067575027046e-09,
        0.0,
        0.0,
        95.81534576416016,
        0.0,
        1.0
      ],
      "name": "Native Moisturizing Shampoo | Coconut & Vanilla"
    },
    {
      "mesh": 0,
      "name": "Native Moisturizing Shampoo | Coconut & Vanilla_Material.001_0"
    },
    {
      "mesh": 1,
      "name": "Native Moisturizing Shampoo | Coconut & Vanilla_Material.005_0"
    },
    {
      "mesh": 2,
      "name": "Native Moisturizing Shampoo | Coconut & Vanilla_Material.004_0"
    },
    {
      "mesh": 3,
      "name": "Native Moisturizing Shampoo | Coconut & Vanilla_Material.003_0"
    }
  ],
  "samplers": [
    {
      "magFilter": 9729,
      "minFilter": 9987,
      "wrapS": 10497,
      "wrapT": 10497
    }
  ],
  "scene": 0,
  "scenes": [
    {
      "name": "Sketchfab_Scene",
      "nodes": [
        0
      ]
    }
  ],
  "textures": [
    {
      "sampler": 0,
      "source": 0
    },
    {
      "sampler": 0,
      "source": 1
    }
  ]
}
